REM DIRINDEX 1\2\6,1\2\7,1\2\8,1\3\9,1\3\10,1\3\11,1\4\12,1\4\13,1\4\14,1\5\15,1\5\16,1\5\17,1\5\18
REM DIRNAME folder01,folder02,folder03,folder04,folder05,folder06,folder07,folder08,folder09,folder10,folder11,folder12,folder13,folder14,folder15,folder16,folder17,folder18
TITLE ""
FILE "2Q_j_1264-1277.mp3" MP3
  TRACK 01 AUDIO
    TITLE "6:cjc019_0254"
    INDEX 01 00:00:00
  TRACK 02 AUDIO
    TITLE "0:"
    INDEX 01 00:00:72
  TRACK 03 AUDIO
    TITLE "7:cjc019_0255"
    INDEX 01 00:01:58
  TRACK 04 AUDIO
    TITLE "0:"
    INDEX 01 00:03:66
  TRACK 05 AUDIO
    TITLE "8:cjc019_0256"
    INDEX 01 00:04:44
  TRACK 06 AUDIO
    TITLE "0:"
    INDEX 01 00:07:52
  TRACK 07 AUDIO
    TITLE "6:cjc019_0257"
    INDEX 01 00:08:34
  TRACK 08 AUDIO
    TITLE "0:"
    INDEX 01 00:09:73
  TRACK 09 AUDIO
    TITLE "7:cjc019_0258"
    INDEX 01 00:10:49
  TRACK 10 AUDIO
    TITLE "0:"
    INDEX 01 00:12:30
  TRACK 11 AUDIO
    TITLE "8:cjc019_0259"
    INDEX 01 00:13:10
  TRACK 12 AUDIO
    TITLE "0:"
    INDEX 01 00:17:12
  TRACK 13 AUDIO
    TITLE "6:cjc019_0260"
    INDEX 01 00:17:67
  TRACK 14 AUDIO
    TITLE "0:"
    INDEX 01 00:19:24
  TRACK 15 AUDIO
    TITLE "7:cjc019_0261"
    INDEX 01 00:20:06
  TRACK 16 AUDIO
    TITLE "0:"
    INDEX 01 00:21:39
  TRACK 17 AUDIO
    TITLE "8:cjc019_0262"
    INDEX 01 00:22:21
  TRACK 18 AUDIO
    TITLE "0:"
    INDEX 01 00:24:45
  TRACK 19 AUDIO
    TITLE "6:cjc019_0263"
    INDEX 01 00:25:31
  TRACK 20 AUDIO
    TITLE "0:"
    INDEX 01 00:27:28
  TRACK 21 AUDIO
    TITLE "7:cjc019_0264"
    INDEX 01 00:28:10
  TRACK 22 AUDIO
    TITLE "0:"
    INDEX 01 00:30:67
  TRACK 23 AUDIO
    TITLE "8:cjc019_0265"
    INDEX 01 00:31:43
  TRACK 24 AUDIO
    TITLE "0:"
    INDEX 01 00:35:12
  TRACK 25 AUDIO
    TITLE "6:cjc019_0266"
    INDEX 01 00:35:66
  TRACK 26 AUDIO
    TITLE "0:"
    INDEX 01 00:37:18
  TRACK 27 AUDIO
    TITLE "7:cjc019_0267"
    INDEX 01 00:38:02
  TRACK 28 AUDIO
    TITLE "0:"
    INDEX 01 00:41:49
  TRACK 29 AUDIO
    TITLE "8:cjc019_0268"
    INDEX 01 00:42:25
  TRACK 30 AUDIO
    TITLE "0:"
    INDEX 01 00:45:00
  TRACK 31 AUDIO
    TITLE "6:cjc019_0269"
    INDEX 01 00:45:55
  TRACK 32 AUDIO
    TITLE "0:"
    INDEX 01 00:47:66
  TRACK 33 AUDIO
    TITLE "7:cjc019_0270"
    INDEX 01 00:48:48
  TRACK 34 AUDIO
    TITLE "0:"
    INDEX 01 00:50:60
  TRACK 35 AUDIO
    TITLE "8:cjc019_0271"
    INDEX 01 00:51:36
  TRACK 36 AUDIO
    TITLE "0:"
    INDEX 01 00:55:30
  TRACK 37 AUDIO
    TITLE "6:cjc019_0272"
    INDEX 01 00:56:06
  TRACK 38 AUDIO
    TITLE "0:"
    INDEX 01 00:57:21
  TRACK 39 AUDIO
    TITLE "7:cjc019_0273"
    INDEX 01 00:57:74
  TRACK 40 AUDIO
    TITLE "0:"
    INDEX 01 01:01:03
  TRACK 41 AUDIO
    TITLE "8:cjc019_0274"
    INDEX 01 01:01:60
  TRACK 42 AUDIO
    TITLE "0:"
    INDEX 01 01:06:45
  TRACK 43 AUDIO
    TITLE "6:cjc019_0275"
    INDEX 01 01:07:25
  TRACK 44 AUDIO
    TITLE "0:"
    INDEX 01 01:09:22
  TRACK 45 AUDIO
    TITLE "7:cjc019_0276"
    INDEX 01 01:09:73
  TRACK 46 AUDIO
    TITLE "0:"
    INDEX 01 01:12:01
  TRACK 47 AUDIO
    TITLE "8:cjc019_0277"
    INDEX 01 01:12:52
  TRACK 48 AUDIO
    TITLE "0:"
    INDEX 01 01:14:70
  TRACK 49 AUDIO
    TITLE "6:cjc019_0278"
    INDEX 01 01:15:52
  TRACK 50 AUDIO
    TITLE "0:"
    INDEX 01 01:17:39
  TRACK 51 AUDIO
    TITLE "7:cjc019_0279"
    INDEX 01 01:18:23
  TRACK 52 AUDIO
    TITLE "0:"
    INDEX 01 01:20:57
  TRACK 53 AUDIO
    TITLE "8:cjc019_0280"
    INDEX 01 01:21:37
  TRACK 54 AUDIO
    TITLE "0:"
    INDEX 01 01:24:45
  TRACK 55 AUDIO
    TITLE "6:cjc019_0281"
    INDEX 01 01:25:29
  TRACK 56 AUDIO
    TITLE "0:"
    INDEX 01 01:26:54
  TRACK 57 AUDIO
    TITLE "7:cjc019_0282"
    INDEX 01 01:27:34
  TRACK 58 AUDIO
    TITLE "0:"
    INDEX 01 01:32:04
  TRACK 59 AUDIO
    TITLE "8:cjc019_0283"
    INDEX 01 01:32:60
  TRACK 60 AUDIO
    TITLE "0:"
    INDEX 01 01:36:60
  TRACK 61 AUDIO
    TITLE "6:cjc019_0284"
    INDEX 01 01:37:46
  TRACK 62 AUDIO
    TITLE "0:"
    INDEX 01 01:38:69
  TRACK 63 AUDIO
    TITLE "7:cjc019_0285"
    INDEX 01 01:39:53
  TRACK 64 AUDIO
    TITLE "0:"
    INDEX 01 01:41:57
  TRACK 65 AUDIO
    TITLE "8:cjc019_0286"
    INDEX 01 01:42:33
  TRACK 66 AUDIO
    TITLE "0:"
    INDEX 01 01:46:63
  TRACK 67 AUDIO
    TITLE "6:cjc019_0287"
    INDEX 01 01:47:40
  TRACK 68 AUDIO
    TITLE "0:"
    INDEX 01 01:49:39
  TRACK 69 AUDIO
    TITLE "7:cjc019_0288"
    INDEX 01 01:50:19
  TRACK 70 AUDIO
    TITLE "0:"
    INDEX 01 01:52:69
  TRACK 71 AUDIO
    TITLE "8:cjc019_0289"
    INDEX 01 01:53:47
  TRACK 72 AUDIO
    TITLE "0:"
    INDEX 01 01:57:25
  TRACK 73 AUDIO
    TITLE "6:cjc019_0290"
    INDEX 01 01:58:01
  TRACK 74 AUDIO
    TITLE "0:"
    INDEX 01 01:59:30
  TRACK 75 AUDIO
    TITLE "7:cjc019_0291"
    INDEX 01 02:00:08
  TRACK 76 AUDIO
    TITLE "0:"
    INDEX 01 02:01:70
  TRACK 77 AUDIO
    TITLE "8:cjc019_0292"
    INDEX 01 02:02:46
  TRACK 78 AUDIO
    TITLE "0:"
    INDEX 01 02:07:12
  TRACK 79 AUDIO
    TITLE "6:cjc019_0293"
    INDEX 01 02:07:69
  TRACK 80 AUDIO
    TITLE "0:"
    INDEX 01 02:09:48
  TRACK 81 AUDIO
    TITLE "7:cjc019_0294"
    INDEX 01 02:10:32
  TRACK 82 AUDIO
    TITLE "0:"
    INDEX 01 02:12:03
  TRACK 83 AUDIO
    TITLE "8:cjc019_0295"
    INDEX 01 02:12:56
  TRACK 84 AUDIO
    TITLE "0:"
    INDEX 01 02:16:54
